# xmcd
#
# Track frame offsets:
# 150
# 16260
# 32555
# 55874
# 72774
# 95309
# 127168
# 148498
#
# Disc length: 2177 seconds
#
# Revision: 0
# Processed by: cddbd v1.5.2PL0 Copyright (c) Steve Scherf et al.
# Submitted via: Audion 3.0.2 (http://www.panic.com/audion/)
#
DISCID=6e087f08
DTITLE=Hedzoleh Soundz - Hedzoleh
DYEAR=1900
DGENRE=
TTITLE0=Rekpete
TTITLE1=Mee Bee
TTITLE2=Yei Baa Gbe Wo
TTITLE3=Kaa Ye Oyai
TTITLE4=Omusu Da Fe M'Musu
TTITLE5=Hedzoleh!
TTITLE6=Hearts Ne Kotoko
TTITLE7=Mo Oso Obu Naa
EXTD=
EXTT0=
EXTT1=
EXTT2=
EXTT3=
EXTT4=
EXTT5=
EXTT6=
EXTT7=
PLAYORDER=
